<svg width="304.61000366210936px" height="120.8px" xmlns="http://www.w3.org/2000/svg" viewBox="97.69499816894532 14.600000000000001 304.61000366210936 120.8" style="background: rgba(0, 0, 0, 0);" preserveAspectRatio="xMidYMid"><defs><linearGradient id="editing-shiny-gradient" x1="0.04322727117869957" x2="0.9567727288213004" y1="0.2966316784620999" y2="0.7033683215379001" gradientUnits="objectBoundingBox"><stop offset="0.0" stop-color="#ffb200"></stop><stop offset="0.5" stop-color="#e10057"></stop><stop offset="1.0" stop-color="#5A1A80"></stop></linearGradient><linearGradient id="editing-shiny-gradient2" x1="0" x2="0" y1="0" y2="1"><stop offset="0.2" stop-color="#fff" stop-opacity="0.8"></stop><stop offset="0.8" stop-color="#fff" stop-opacity="0"></stop></linearGradient><filter id="editing-shiny2" x="-100%" y="-100%" width="300%" height="300%"><feMorphology operator="erode" radius="2"></feMorphology></filter><filter id="editing-shiny" x="-100%" y="-100%" width="300%" height="300%"><feFlood flood-color="#fff" result="flood"></feFlood><feConvolveMatrix in="SourceGraphic" result="conv" order="8,8" divisor="1" kernelMatrix="0 0 0 0 0 0 0 0 0 0 0 1 1 0 0 0 0 0 0 1 1 0 0 0 0 0 1 0 0 1 0 0 0 0 1 0 0 1 0 0 0 1 0 0 0 0 1 0 0 1 1 0 0 1 1 0 0 0 0 1 1 0 0 0 "></feConvolveMatrix><feOffset dx="0" dy="4" in="conv" result="offset"></feOffset><feComposite operator="in" in="flood" in2="offset" result="comp"></feComposite><feGaussianBlur in="offset" stdDeviation="3" result="shadow"></feGaussianBlur><feColorMatrix in="shadow" type="matrix" values="0.7 0 0 0 0  0 0.7 0 0 0  0 0 0.7 0 0  0 0 0 0.3 0" result="dark-shadow"></feColorMatrix><feOffset dx="0" dy="4" in="dark-shadow" result="offset-shadow"></feOffset><feOffset dx="0" dy="2" in="conv" result="offset-2"></feOffset><feComposite operator="out" in="offset" in2="offset-2" result="edge-diff"></feComposite><feGaussianBlur in="edge-diff" stdDeviation="1" result="edge-blur"></feGaussianBlur><feColorMatrix in="edge-blur" result="edge-shadow" type="matrix" values="0 0 0 0 0  0 0 0 0 0  0 0 0 0 0  0 0 0 0.5 0"></feColorMatrix><feComposite operator="in" in="edge-shadow" in2="offset" result="edge-shadow-in"></feComposite><feOffset dx="0" dy="1" in="edge-shadow-in" result="edge-shadow-final"></feOffset><feMerge result="out"><feMergeNode in="offset-shadow"></feMergeNode><feMergeNode in="comp"></feMergeNode><feMergeNode in="edge-shadow-final"></feMergeNode><feMergeNode in="SourceGraphic"></feMergeNode></feMerge></filter></defs><g filter="url(#editing-shiny)"><g transform="translate(145.74501252174377, 97.01499938964844)"><path d="M14.21 0L0.51 0L8.32-42.05L8.32-42.05Q14.66-42.75 23.90-42.75L23.90-42.75L23.90-42.75Q33.15-42.75 37.44-40.06L37.44-40.06L37.44-40.06Q41.73-37.38 41.73-31.97L41.73-31.97L41.73-31.97Q41.73-26.56 38.94-23.17L38.94-23.17L38.94-23.17Q36.16-19.78 31.36-18.69L31.36-18.69L31.36-18.69Q32.45-13.38 34.94-9.09L34.94-9.09L34.94-9.09Q37.25-5.06 39.94-3.78L39.94-3.78L39.94-3.78Q38.98-1.09 37.02 0.10L37.02 0.10L37.02 0.10Q35.07 1.28 32.29 1.28L32.29 1.28L32.29 1.28Q29.50 1.28 27.33-0.35L27.33-0.35L27.33-0.35Q25.15-1.98 23.42-4.99L23.42-4.99L23.42-4.99Q19.78-11.52 19.39-21.82L19.39-21.82L19.84-21.82L19.84-21.82Q24.58-21.95 26.94-24.42L26.94-24.42L26.94-24.42Q29.31-26.88 29.31-32.06L29.31-32.06L29.31-32.06Q29.31-38.53 23.87-38.78L23.87-38.78L22.46-38.78L22.46-38.78Q21.89-38.78 21.57-38.72L21.57-38.72L14.21 0ZM58.62 1.28L58.62 1.28L58.62 1.28Q44.54 1.28 44.54-11.97L44.54-11.97L44.54-11.97Q44.54-21.38 49.73-27.46L49.73-27.46L49.73-27.46Q55.23-33.92 64.77-33.92L64.77-33.92L64.77-33.92Q71.68-33.92 75.20-30.72L75.20-30.72L75.20-30.72Q78.72-27.52 78.72-20.80L78.72-20.80L78.72-20.80Q78.72-10.56 73.22-4.61L73.22-4.61L73.22-4.61Q67.84 1.28 58.62 1.28ZM60.29-26.56L60.29-26.56L60.29-26.56Q59.52-24.83 58.91-22.24L58.91-22.24L58.91-22.24Q58.30-19.65 57.54-15.55L57.54-15.55L57.54-15.55Q56.77-11.46 56.77-6.40L56.77-6.40L56.77-6.40Q56.77-4.74 57.31-3.65L57.31-3.65L57.31-3.65Q57.86-2.56 59.33-2.56L59.33-2.56L59.33-2.56Q60.80-2.56 61.73-3.26L61.73-3.26L61.73-3.26Q62.66-3.97 63.36-5.63L63.36-5.63L63.36-5.63Q64.64-8.58 65.66-14.05L65.66-14.05L65.66-14.05Q66.69-19.52 66.78-21.89L66.78-21.89L66.78-21.89Q66.88-24.26 66.88-26.02L66.88-26.02L66.88-26.02Q66.88-27.78 66.37-28.93L66.37-28.93L66.37-28.93Q65.86-30.08 64.42-30.08L64.42-30.08L64.42-30.08Q62.98-30.08 62.02-29.18L62.02-29.18L62.02-29.18Q61.06-28.29 60.29-26.56ZM96.45 1.28L96.45 1.28L96.45 1.28Q82.37 1.28 82.37-11.97L82.37-11.97L82.37-11.97Q82.37-21.38 87.55-27.46L87.55-27.46L87.55-27.46Q93.06-33.92 102.59-33.92L102.59-33.92L102.59-33.92Q109.50-33.92 113.02-30.72L113.02-30.72L113.02-30.72Q116.54-27.52 116.54-20.80L116.54-20.80L116.54-20.80Q116.54-10.56 111.04-4.61L111.04-4.61L111.04-4.61Q105.66 1.28 96.45 1.28ZM98.11-26.56L98.11-26.56L98.11-26.56Q97.34-24.83 96.74-22.24L96.74-22.24L96.74-22.24Q96.13-19.65 95.36-15.55L95.36-15.55L95.36-15.55Q94.59-11.46 94.59-6.40L94.59-6.40L94.59-6.40Q94.59-4.74 95.14-3.65L95.14-3.65L95.14-3.65Q95.68-2.56 97.15-2.56L97.15-2.56L97.15-2.56Q98.62-2.56 99.55-3.26L99.55-3.26L99.55-3.26Q100.48-3.97 101.18-5.63L101.18-5.63L101.18-5.63Q102.46-8.58 103.49-14.05L103.49-14.05L103.49-14.05Q104.51-19.52 104.61-21.89L104.61-21.89L104.61-21.89Q104.70-24.26 104.70-26.02L104.70-26.02L104.70-26.02Q104.70-27.78 104.19-28.93L104.19-28.93L104.19-28.93Q103.68-30.08 102.24-30.08L102.24-30.08L102.24-30.08Q100.80-30.08 99.84-29.18L99.84-29.18L99.84-29.18Q98.88-28.29 98.11-26.56ZM166.40 1.28L166.40 1.28L166.40 1.28Q158.66 1.28 158.66-4.74L158.66-4.74L158.66-4.74Q158.66-7.36 159.78-12.45L159.78-12.45L159.78-12.45Q160.90-17.54 161.28-19.58L161.28-19.58L161.28-19.58Q162.18-24.26 162.18-25.73L162.18-25.73L162.18-25.73Q162.18-28.99 159.74-28.99L159.74-28.99L159.74-28.99Q158.14-28.99 156.61-26.78L156.61-26.78L156.61-26.78Q155.07-24.58 154.37-20.16L154.37-20.16L150.40 0L137.92 1.28L141.38-16.13L141.38-16.13Q141.95-19.01 142.46-22.27L142.46-22.27L142.46-22.27Q142.98-25.54 142.98-26.05L142.98-26.05L142.98-26.05Q142.98-28.99 140.80-28.99L140.80-28.99L140.80-28.99Q139.33-28.99 137.73-26.82L137.73-26.82L137.73-26.82Q136.13-24.64 135.23-20.16L135.23-20.16L131.33 0L118.72 1.28L125.44-32.64L135.87-33.92L134.78-27.46L134.78-27.46Q136.45-30.91 139.52-32.42L139.52-32.42L139.52-32.42Q142.59-33.92 147.39-33.92L147.39-33.92L147.39-33.92Q150.14-33.92 151.94-32.58L151.94-32.58L151.94-32.58Q153.73-31.23 154.30-29.06L154.30-29.06L154.30-29.06Q155.39-31.30 158.18-32.61L158.18-32.61L158.18-32.61Q160.96-33.92 164.38-33.92L164.38-33.92L164.38-33.92Q167.81-33.92 169.50-33.18L169.50-33.18L169.50-33.18Q171.20-32.45 172.22-31.23L172.22-31.23L172.22-31.23Q173.95-28.99 173.95-24.90L173.95-24.90L173.95-24.90Q173.95-20.86 172.22-12.48L172.22-12.48L172.22-12.48Q171.33-8.38 171.33-6.88L171.33-6.88L171.33-6.88Q171.33-5.38 172.19-4.48L172.19-4.48L172.19-4.48Q173.06-3.58 174.34-3.46L174.34-3.46L174.34-3.46Q173.70-1.28 171.49 0L171.49 0L171.49 0Q169.28 1.28 166.40 1.28ZM198.40-22.46L198.40-22.46L198.40-22.46Q199.30-24.83 199.30-26.88L199.30-26.88L199.30-26.88Q199.30-30.66 196.22-30.66L196.22-30.66L196.22-30.66Q194.62-30.66 193.31-29.22L193.31-29.22L193.31-29.22Q192-27.78 192-25.98L192-25.98L192-25.98Q192-24.70 193.02-23.68L193.02-23.68L193.02-23.68Q194.50-22.27 198.27-19.97L198.27-19.97L198.27-19.97Q202.05-17.66 203.49-15.78L203.49-15.78L203.49-15.78Q204.93-13.89 204.93-11.30L204.93-11.30L204.93-11.30Q204.93-8.70 203.68-6.34L203.68-6.34L203.68-6.34Q202.43-3.97 200.19-2.30L200.19-2.30L200.19-2.30Q195.39 1.28 187.71 1.28L187.71 1.28L187.71 1.28Q183.55 1.28 180.35-0.90L180.35-0.90L180.35-0.90Q177.15-3.01 177.15-5.50L177.15-5.50L177.15-5.50Q177.15-8 178.98-9.47L178.98-9.47L178.98-9.47Q180.80-10.94 183.49-10.94L183.49-10.94L183.49-10.94Q186.18-10.94 187.84-9.92L187.84-9.92L187.84-9.92Q187.01-7.81 187.01-6.40L187.01-6.40L187.01-6.40Q187.01-2.18 190.59-2.18L190.59-2.18L190.59-2.18Q192.13-2.18 193.15-3.14L193.15-3.14L193.15-3.14Q194.18-4.10 194.18-5.76L194.18-5.76L194.18-5.76Q194.18-9.02 188.67-12.48L188.67-12.48L188.67-12.48Q184.19-15.42 183.17-16.58L183.17-16.58L183.17-16.58Q181.44-18.62 181.44-21.18L181.44-21.18L181.44-21.18Q181.44-23.74 182.66-26.18L182.66-26.18L182.66-26.18Q183.87-28.61 186.11-30.34L186.11-30.34L186.11-30.34Q190.78-33.92 198.91-33.92L198.91-33.92L198.91-33.92Q203.07-33.92 205.54-32.26L205.54-32.26L205.54-32.26Q208-30.59 208-27.78L208-27.78L208-27.78Q208-24.96 206.30-23.36L206.30-23.36L206.30-23.36Q204.61-21.76 201.54-21.76L201.54-21.76L201.54-21.76Q199.42-21.76 198.40-22.46Z" fill="url(#editing-shiny-gradient)"></path></g></g><g filter="url(#editing-shiny2)"><g transform="translate(145.7449667453766, 97.01499557495117)"><path d="M14.21 0L0.51 0L8.32-42.05L8.32-42.05Q14.66-42.75 23.90-42.75L23.90-42.75L23.90-42.75Q33.15-42.75 37.44-40.06L37.44-40.06L37.44-40.06Q41.73-37.38 41.73-31.97L41.73-31.97L41.73-31.97Q41.73-26.56 38.94-23.17L38.94-23.17L38.94-23.17Q36.16-19.78 31.36-18.69L31.36-18.69L31.36-18.69Q32.45-13.38 34.94-9.09L34.94-9.09L34.94-9.09Q37.25-5.06 39.94-3.78L39.94-3.78L39.94-3.78Q38.98-1.09 37.02 0.10L37.02 0.10L37.02 0.10Q35.07 1.28 32.29 1.28L32.29 1.28L32.29 1.28Q29.50 1.28 27.33-0.35L27.33-0.35L27.33-0.35Q25.15-1.98 23.42-4.99L23.42-4.99L23.42-4.99Q19.78-11.52 19.39-21.82L19.39-21.82L19.84-21.82L19.84-21.82Q24.58-21.95 26.94-24.42L26.94-24.42L26.94-24.42Q29.31-26.88 29.31-32.06L29.31-32.06L29.31-32.06Q29.31-38.53 23.87-38.78L23.87-38.78L22.46-38.78L22.46-38.78Q21.89-38.78 21.57-38.72L21.57-38.72L14.21 0ZM58.62 1.28L58.62 1.28L58.62 1.28Q44.54 1.28 44.54-11.97L44.54-11.97L44.54-11.97Q44.54-21.38 49.73-27.46L49.73-27.46L49.73-27.46Q55.23-33.92 64.77-33.92L64.77-33.92L64.77-33.92Q71.68-33.92 75.20-30.72L75.20-30.72L75.20-30.72Q78.72-27.52 78.72-20.80L78.72-20.80L78.72-20.80Q78.72-10.56 73.22-4.61L73.22-4.61L73.22-4.61Q67.84 1.28 58.62 1.28ZM60.29-26.56L60.29-26.56L60.29-26.56Q59.52-24.83 58.91-22.24L58.91-22.24L58.91-22.24Q58.30-19.65 57.54-15.55L57.54-15.55L57.54-15.55Q56.77-11.46 56.77-6.40L56.77-6.40L56.77-6.40Q56.77-4.74 57.31-3.65L57.31-3.65L57.31-3.65Q57.86-2.56 59.33-2.56L59.33-2.56L59.33-2.56Q60.80-2.56 61.73-3.26L61.73-3.26L61.73-3.26Q62.66-3.97 63.36-5.63L63.36-5.63L63.36-5.63Q64.64-8.58 65.66-14.05L65.66-14.05L65.66-14.05Q66.69-19.52 66.78-21.89L66.78-21.89L66.78-21.89Q66.88-24.26 66.88-26.02L66.88-26.02L66.88-26.02Q66.88-27.78 66.37-28.93L66.37-28.93L66.37-28.93Q65.86-30.08 64.42-30.08L64.42-30.08L64.42-30.08Q62.98-30.08 62.02-29.18L62.02-29.18L62.02-29.18Q61.06-28.29 60.29-26.56ZM96.45 1.28L96.45 1.28L96.45 1.28Q82.37 1.28 82.37-11.97L82.37-11.97L82.37-11.97Q82.37-21.38 87.55-27.46L87.55-27.46L87.55-27.46Q93.06-33.92 102.59-33.92L102.59-33.92L102.59-33.92Q109.50-33.92 113.02-30.72L113.02-30.72L113.02-30.72Q116.54-27.52 116.54-20.80L116.54-20.80L116.54-20.80Q116.54-10.56 111.04-4.61L111.04-4.61L111.04-4.61Q105.66 1.28 96.45 1.28ZM98.11-26.56L98.11-26.56L98.11-26.56Q97.34-24.83 96.74-22.24L96.74-22.24L96.74-22.24Q96.13-19.65 95.36-15.55L95.36-15.55L95.36-15.55Q94.59-11.46 94.59-6.40L94.59-6.40L94.59-6.40Q94.59-4.74 95.14-3.65L95.14-3.65L95.14-3.65Q95.68-2.56 97.15-2.56L97.15-2.56L97.15-2.56Q98.62-2.56 99.55-3.26L99.55-3.26L99.55-3.26Q100.48-3.97 101.18-5.63L101.18-5.63L101.18-5.63Q102.46-8.58 103.49-14.05L103.49-14.05L103.49-14.05Q104.51-19.52 104.61-21.89L104.61-21.89L104.61-21.89Q104.70-24.26 104.70-26.02L104.70-26.02L104.70-26.02Q104.70-27.78 104.19-28.93L104.19-28.93L104.19-28.93Q103.68-30.08 102.24-30.08L102.24-30.08L102.24-30.08Q100.80-30.08 99.84-29.18L99.84-29.18L99.84-29.18Q98.88-28.29 98.11-26.56ZM166.40 1.28L166.40 1.28L166.40 1.28Q158.66 1.28 158.66-4.74L158.66-4.74L158.66-4.74Q158.66-7.36 159.78-12.45L159.78-12.45L159.78-12.45Q160.90-17.54 161.28-19.58L161.28-19.58L161.28-19.58Q162.18-24.26 162.18-25.73L162.18-25.73L162.18-25.73Q162.18-28.99 159.74-28.99L159.74-28.99L159.74-28.99Q158.14-28.99 156.61-26.78L156.61-26.78L156.61-26.78Q155.07-24.58 154.37-20.16L154.37-20.16L150.40 0L137.92 1.28L141.38-16.13L141.38-16.13Q141.95-19.01 142.46-22.27L142.46-22.27L142.46-22.27Q142.98-25.54 142.98-26.05L142.98-26.05L142.98-26.05Q142.98-28.99 140.80-28.99L140.80-28.99L140.80-28.99Q139.33-28.99 137.73-26.82L137.73-26.82L137.73-26.82Q136.13-24.64 135.23-20.16L135.23-20.16L131.33 0L118.72 1.28L125.44-32.64L135.87-33.92L134.78-27.46L134.78-27.46Q136.45-30.91 139.52-32.42L139.52-32.42L139.52-32.42Q142.59-33.92 147.39-33.92L147.39-33.92L147.39-33.92Q150.14-33.92 151.94-32.58L151.94-32.58L151.94-32.58Q153.73-31.23 154.30-29.06L154.30-29.06L154.30-29.06Q155.39-31.30 158.18-32.61L158.18-32.61L158.18-32.61Q160.96-33.92 164.38-33.92L164.38-33.92L164.38-33.92Q167.81-33.92 169.50-33.18L169.50-33.18L169.50-33.18Q171.20-32.45 172.22-31.23L172.22-31.23L172.22-31.23Q173.95-28.99 173.95-24.90L173.95-24.90L173.95-24.90Q173.95-20.86 172.22-12.48L172.22-12.48L172.22-12.48Q171.33-8.38 171.33-6.88L171.33-6.88L171.33-6.88Q171.33-5.38 172.19-4.48L172.19-4.48L172.19-4.48Q173.06-3.58 174.34-3.46L174.34-3.46L174.34-3.46Q173.70-1.28 171.49 0L171.49 0L171.49 0Q169.28 1.28 166.40 1.28ZM198.40-22.46L198.40-22.46L198.40-22.46Q199.30-24.83 199.30-26.88L199.30-26.88L199.30-26.88Q199.30-30.66 196.22-30.66L196.22-30.66L196.22-30.66Q194.62-30.66 193.31-29.22L193.31-29.22L193.31-29.22Q192-27.78 192-25.98L192-25.98L192-25.98Q192-24.70 193.02-23.68L193.02-23.68L193.02-23.68Q194.50-22.27 198.27-19.97L198.27-19.97L198.27-19.97Q202.05-17.66 203.49-15.78L203.49-15.78L203.49-15.78Q204.93-13.89 204.93-11.30L204.93-11.30L204.93-11.30Q204.93-8.70 203.68-6.34L203.68-6.34L203.68-6.34Q202.43-3.97 200.19-2.30L200.19-2.30L200.19-2.30Q195.39 1.28 187.71 1.28L187.71 1.28L187.71 1.28Q183.55 1.28 180.35-0.90L180.35-0.90L180.35-0.90Q177.15-3.01 177.15-5.50L177.15-5.50L177.15-5.50Q177.15-8 178.98-9.47L178.98-9.47L178.98-9.47Q180.80-10.94 183.49-10.94L183.49-10.94L183.49-10.94Q186.18-10.94 187.84-9.92L187.84-9.92L187.84-9.92Q187.01-7.81 187.01-6.40L187.01-6.40L187.01-6.40Q187.01-2.18 190.59-2.18L190.59-2.18L190.59-2.18Q192.13-2.18 193.15-3.14L193.15-3.14L193.15-3.14Q194.18-4.10 194.18-5.76L194.18-5.76L194.18-5.76Q194.18-9.02 188.67-12.48L188.67-12.48L188.67-12.48Q184.19-15.42 183.17-16.58L183.17-16.58L183.17-16.58Q181.44-18.62 181.44-21.18L181.44-21.18L181.44-21.18Q181.44-23.74 182.66-26.18L182.66-26.18L182.66-26.18Q183.87-28.61 186.11-30.34L186.11-30.34L186.11-30.34Q190.78-33.92 198.91-33.92L198.91-33.92L198.91-33.92Q203.07-33.92 205.54-32.26L205.54-32.26L205.54-32.26Q208-30.59 208-27.78L208-27.78L208-27.78Q208-24.96 206.30-23.36L206.30-23.36L206.30-23.36Q204.61-21.76 201.54-21.76L201.54-21.76L201.54-21.76Q199.42-21.76 198.40-22.46Z" fill="url(#editing-shiny-gradient2)"></path></g></g><style>text {
  font-size: 64px;
  font-family: Arial Black;
  dominant-baseline: central;
  text-anchor: middle;
}</style></svg>